<svg xmlns="http://www.w3.org/2000/svg" xmlns:xlink="http://www.w3.org/1999/xlink" width="413.708" height="130.276" viewbox="0 0 413.708 130.276">
  <defs>
    <filter id="_Detran_Web" x="75.708" y="0" width="338" height="92" filterUnits="userSpaceOnUse">
      <feOffset dy="3" input="SourceAlpha"/>
      <feGaussianBlur stdDeviation="3" result="blur"/>
      <feFlood flood-opacity="0.161"/>
      <feComposite operator="in" in2="blur"/>
      <feComposite in="SourceGraphic"/>
    </filter>
    <filter id="Caminho_1281" x="0" y="3.269" width="100.816" height="101.023" filterUnits="userSpaceOnUse">
      <feOffset dx="2" dy="9" input="SourceAlpha"/>
      <feGaussianBlur stdDeviation="4.5" result="blur-2"/>
      <feFlood flood-opacity="0.161"/>
      <feComposite operator="in" in2="blur-2"/>
      <feComposite in="SourceGraphic"/>
    </filter>
  </defs>
  <g id="Grupo_685" data-name="Grupo 685" transform="translate(-740.684 -267.724)">
    <text id="Seja_bem-vindo_" data-name="Seja bem-vindo!" transform="translate(961 390)" fill="#f9f9f9" font-size="30" font-family="SourceSansPro-Regular, Source Sans Pro" letter-spacing="0.01em"><tspan x="-104.235" y="0">Seja bem-vindo!</tspan></text>
    <g transform="matrix(1, 0, 0, 1, 740.68, 267.72)" filter="url(#_Detran_Web)">
      <text id="_Detran_Web-2" data-name=" Detran Web" transform="translate(244.71 64)" fill="#fff" font-size="59" font-family="SourceSansPro-Bold, Source Sans Pro" font-weight="700" letter-spacing="0.01em"><tspan x="-159.271" y="0" xml:space="preserve"> Detran Web</tspan></text>
    </g>
    <g id="Grupo_684" data-name="Grupo 684">
      <g transform="matrix(1, 0, 0, 1, 740.68, 267.72)" filter="url(#Caminho_1281)">
        <path id="Caminho_1281-2" data-name="Caminho 1281" d="M0,0H73.816V74.023H0Z" transform="translate(11.5 7.77)" fill="#fefefe"/>
      </g>
      <g id="Camada_x0020_1" transform="translate(752.184 275.516)">
        <g id="_2031565998128">
          <path id="Caminho_448" data-name="Caminho 448" d="M-1.47,67.514H72.738v3.095H-1.47V67.514ZM72.738-3.6H-1.47v2.036H72.738ZM-1.47-.188H72.738V2.568H-1.47V-.188Zm0,3.612H72.738V6.181H-1.47Zm0,3.611H72.738V9.794H-1.47Zm0,3.958H72.738v2.757H-1.47Zm0,3.786H72.738v2.756H-1.47Zm0,3.7H72.738v2.757H-1.47Zm0,3.87H72.738V25.1H-1.47Zm0,3.871H72.738v2.759H-1.47Zm0,3.612H72.738V32.59H-1.47Zm0,3.957H72.738v2.5H-1.47Zm0,3.612H72.738v2.756H-1.47Zm0,3.785H72.738v2.757H-1.47Zm0,3.612H72.738v2.759H-1.47Zm0,3.958H72.738v2.756H-1.47Zm0,3.784H72.738V55.3H-1.47Zm0,3.7H72.738v2.756H-1.47Zm0,3.875H72.738v2.582H-1.47Zm0,3.784H72.738V66.65H-1.47Z" transform="translate(1.47 3.6)" fill="#25a858" fill-rule="evenodd"/>
          <path id="Caminho_449" data-name="Caminho 449" d="M492.04,423.54a34.585,34.585,0,1,1-34.609,34.586A34.6,34.6,0,0,1,492.04,423.54Z" transform="translate(-455.16 -421.428)" fill="#fefefe" fill-rule="evenodd"/>
          <path id="Caminho_450" data-name="Caminho 450" d="M896.237,813.517q-1.161-.568-2.382-1.082c-.084-.368-.173-.735-.259-1.1.9.618,1.773,1.276,2.612,1.974C896.217,813.381,896.227,813.449,896.237,813.517Zm-3.656-1.6q-1.3-.5-2.657-.935c-.1-.462-.195-.916-.3-1.369q1.438.473,2.824,1.023C892.5,811.064,892.538,811.491,892.581,811.92Zm-3.86-1.3q-1.189-.347-2.412-.638c-.069-.461-.138-.916-.211-1.367q1.289.314,2.541.692C888.666,809.741,888.7,810.179,888.72,810.618Zm-3.793-.947q-1.207-.251-2.446-.45c-.06-.464-.119-.922-.18-1.378q1.3.213,2.579.488C884.894,808.776,884.912,809.222,884.927,809.67Zm-3.933-.664q-1.09-.144-2.195-.237c-.039-.468-.078-.926-.119-1.38q1.153.1,2.281.256C880.971,808.1,880.983,808.551,880.994,809.006Zm-3.905-.359q-1.115-.062-2.239-.079c-.032-.489-.064-.95-.1-1.378q1.174.015,2.328.083Q877.085,807.958,877.089,808.647Zm-3.762-.079q-1.124.016-2.235.079,0-.691.005-1.375,1.158-.067,2.33-.083C873.392,807.619,873.359,808.079,873.327,808.568Zm-3.945.2q-1.107.093-2.195.237.016-.683.031-1.361c.752-.1,1.514-.187,2.282-.256C869.46,807.843,869.42,808.3,869.382,808.769Zm-3.684.452q-1.238.2-2.448.45.025-.672.05-1.339,1.275-.274,2.578-.488C865.815,808.3,865.757,808.757,865.7,809.221Zm-3.828.759q-1.223.291-2.411.638.04-.658.081-1.313,1.255-.378,2.542-.692C862.01,809.064,861.939,809.519,861.87,809.98Zm-3.613,1.005q-1.354.432-2.657.937c.041-.431.083-.856.127-1.283q1.385-.552,2.822-1.023C858.45,810.07,858.354,810.525,858.257,810.985Zm-3.933,1.449c-.814.342-1.606.7-2.383,1.082.013-.068.023-.137.033-.2q1.255-1.047,2.611-1.974Q854.453,811.881,854.324,812.435Zm-6.614,5.31c-.379.775-.742,1.57-1.082,2.382-.369.084-.734.172-1.1.259q.928-1.351,1.975-2.608C847.575,817.767,847.641,817.754,847.71,817.745Zm-1.594,3.657q-.506,1.3-.939,2.654c-.462.1-.915.194-1.368.3q.468-1.441,1.025-2.823Zm-1.307,3.856c-.23.791-.444,1.595-.637,2.408q-.694.106-1.369.213c.211-.859.441-1.706.693-2.54C843.932,825.311,844.371,825.284,844.809,825.258Zm-.946,3.79q-.254,1.207-.451,2.445-.7.088-1.38.18.212-1.3.492-2.577Zm-.667,3.933c-.093.725-.172,1.454-.238,2.193l-1.378.117q.1-1.15.256-2.279Q842.514,832.993,843.2,832.981Zm-.36,3.9q-.062,1.11-.078,2.236c-.49.031-.951.063-1.379.095q.013-1.17.081-2.327Zm-.078,3.755q.015,1.127.078,2.236l-1.375-.005q-.067-1.156-.081-2.328C841.807,840.575,842.268,840.607,842.758,840.638Zm.2,3.945c.066.736.145,1.469.238,2.193l-1.36-.03q-.153-1.129-.259-2.281C842.032,844.507,842.491,844.546,842.958,844.583Zm.454,3.68q.2,1.238.451,2.445c-.449-.015-.9-.032-1.339-.049-.187-.847-.35-1.709-.492-2.577Q842.713,848.177,843.412,848.264Zm.757,3.828c.195.811.409,1.618.639,2.41-.438-.03-.877-.055-1.312-.084-.253-.835-.482-1.681-.693-2.54Q843.479,851.987,844.17,852.092Zm1.007,3.61c.288.9.6,1.789.939,2.655-.431-.042-.86-.084-1.283-.129q-.557-1.381-1.025-2.82C844.262,855.506,844.714,855.6,845.177,855.7Zm1.451,3.932c.34.811.7,1.6,1.082,2.379-.069-.01-.135-.022-.2-.035-.7-.835-1.359-1.707-1.978-2.608C845.893,859.46,846.259,859.547,846.628,859.634Zm26.547-48.314c-.026.5-.047,1.013-.07,1.549q-1.021.012-2.027.043c0-.517,0-1.035.005-1.553Q872.122,811.328,873.175,811.32Zm-.185,4.472c-.014.45-.028.911-.045,1.378-.63.006-1.258.014-1.881.029,0-.463,0-.924,0-1.387Q872.025,815.8,872.99,815.792Zm-.129,4.3q-.015.6-.026,1.207c-.6,0-1.19.013-1.782.024,0-.406,0-.813,0-1.218C871.656,820.1,872.258,820.1,872.861,820.093Zm-.094,4.3c-.007.4-.014.8-.019,1.207-.572,0-1.138.009-1.706.016,0-.405,0-.809.005-1.214C871.62,824.4,872.195,824.4,872.768,824.394Zm-.064,4.13c0,.4-.01.8-.014,1.206-.553,0-1.1.007-1.652.013,0-.4,0-.811,0-1.215C871.592,828.525,872.15,828.525,872.7,828.523Zm-.042,4.128c-.005.456-.007.916-.01,1.379l-1.617.006v-1.381Zm-.024,4.17c0,.531,0,1.064,0,1.6l-1.6,0v-1.6Zm0,4.511c0,.538,0,1.071,0,1.6h-1.6v-1.605C871.562,841.331,872.1,841.333,872.635,841.333Zm.016,4.392c0,.464,0,.924.01,1.38l-1.627,0V845.72C871.571,845.722,872.11,845.725,872.652,845.725Zm.038,4.3c0,.406.009.808.014,1.207-.554,0-1.111,0-1.663,0,0-.406,0-.81,0-1.215C871.587,850.021,872.137,850.026,872.69,850.027Zm.058,4.129c.006.405.013.812.019,1.207-.573,0-1.148,0-1.72,0,0-.406,0-.812-.005-1.217C871.61,854.147,872.177,854.155,872.748,854.155Zm.087,4.3q.011.613.026,1.211c-.6,0-1.205-.008-1.807-.012,0-.407,0-.811,0-1.22C871.645,858.445,872.238,858.453,872.835,858.454Zm.111,4.133c.016.467.03.927.045,1.377-.643,0-1.284-.013-1.923-.022,0-.46,0-.923,0-1.385Q872,862.578,872.946,862.588Zm.159,4.3c.023.537.045,1.055.07,1.551q-1.052-.01-2.093-.041c0-.515,0-1.034-.005-1.551C871.749,866.867,872.424,866.883,873.1,866.886Zm.223,4.3c.032.488.065.947.1,1.377-.782-.009-1.558-.039-2.33-.084q0-.683-.005-1.37Q872.2,871.172,873.327,871.19Zm3.769-59.83c0,.518,0,1.036.008,1.553q-1.01-.033-2.027-.043-.034-.8-.073-1.549C875.7,811.325,876.4,811.339,877.1,811.36Zm.014,4.453c0,.463.007.924.007,1.387-.625-.016-1.254-.024-1.882-.029-.016-.468-.03-.928-.047-1.378Q876.153,815.8,877.11,815.813Zm.013,4.293c0,.4,0,.812.005,1.218-.592-.011-1.185-.019-1.783-.024-.006-.406-.019-.809-.03-1.207C875.92,820.1,876.524,820.1,877.123,820.106Zm.01,4.3c0,.405,0,.809,0,1.214-.566-.007-1.135-.012-1.7-.016-.008-.406-.016-.807-.023-1.207C875.984,824.4,876.561,824.4,877.133,824.4Zm.007,4.125v1.215c-.547-.006-1.1-.01-1.649-.013q-.011-.606-.014-1.206C876.031,828.525,876.587,828.525,877.14,828.527Zm.006,4.129v1.381l-1.618-.006c0-.463-.006-.924-.009-1.379Zm0,4.167v1.6l-1.6,0c0-.539,0-1.071,0-1.6Zm0,4.506v1.605h-1.607q0-.795,0-1.6Q876.352,841.333,877.148,841.329Zm0,4.39V847.1l-1.627,0c0-.456,0-.916.009-1.38C876.071,845.725,876.609,845.722,877.146,845.72Zm-.006,4.3v1.215c-.553,0-1.109,0-1.662,0q0-.6.014-1.207C876.041,850.026,876.593,850.021,877.14,850.016Zm0,4.125c0,.4,0,.81,0,1.217-.573,0-1.149,0-1.723,0,.007-.395.015-.8.023-1.207C876,854.155,876.57,854.147,877.136,854.141Zm-.008,4.292c0,.409,0,.814-.005,1.22-.6,0-1.2.01-1.807.012.01-.4.023-.8.03-1.211C875.943,858.453,876.536,858.445,877.128,858.433Zm-.011,4.125c0,.462,0,.925-.007,1.385-.637.009-1.279.019-1.923.022.018-.45.032-.91.047-1.377C875.863,862.582,876.492,862.572,877.117,862.558Zm-.013,4.287c0,.517-.005,1.036-.008,1.551-.693.021-1.392.034-2.092.041q.037-.743.073-1.551C875.754,866.883,876.43,866.867,877.1,866.845Zm-.015,4.268q0,.688-.007,1.37c-.77.044-1.546.075-2.328.084q.05-.645.1-1.377Q875.975,871.172,877.089,871.113Zm-7.913-59.677c-.037.515-.074,1.036-.109,1.565-.659.036-1.315.078-1.964.128.01-.526.021-1.049.031-1.571C867.809,811.51,868.489,811.467,869.176,811.436Zm-.287,4.426c-.028.464-.055.934-.08,1.405-.6.024-1.188.049-1.777.08q.012-.714.022-1.426Q867.967,815.888,868.889,815.862Zm-.221,4.276c-.02.414-.037.831-.056,1.249q-.821.027-1.639.062c.005-.427.013-.853.017-1.277Q867.825,820.154,868.668,820.138Zm-.172,4.284c-.017.412-.028.827-.041,1.242-.512.013-1.022.026-1.53.043.006-.423.01-.845.016-1.266Zm-.122,4.117q-.015.621-.029,1.242c-.485.01-.967.021-1.451.033q0-.635.01-1.265Zm-.081,4.122c-.008.466-.016.934-.02,1.4-.472,0-.937.011-1.4.02,0-.473,0-.947.008-1.415C867.346,832.666,867.819,832.666,868.292,832.662Zm-.048,4.162q0,.806-.008,1.617l-1.378.008q0-.812,0-1.625Zm-.008,4.491q0,.811.008,1.617H866.86c0-.543,0-1.083,0-1.627Q867.542,841.313,868.237,841.315Zm.036,4.377c0,.469.012.935.02,1.4-.474,0-.947,0-1.416-.008,0-.469-.006-.941-.008-1.413C867.336,845.681,867.8,845.688,868.273,845.693Zm.071,4.281c.009.414.019.832.029,1.243l-1.47-.01q-.008-.63-.01-1.265C867.377,849.953,867.859,849.965,868.344,849.974Zm.111,4.119c.013.413.024.829.041,1.243-.52-.008-1.041-.012-1.555-.022-.006-.421-.01-.842-.016-1.263C867.433,854.066,867.943,854.081,868.455,854.093Zm.157,4.277c.019.419.037.837.056,1.248-.561-.01-1.121-.019-1.679-.032,0-.426-.012-.851-.017-1.28Q867.789,858.345,868.611,858.37Zm.2,4.12c.025.472.052.943.08,1.406q-.922-.027-1.836-.061c-.006-.473-.014-.95-.022-1.425C867.621,862.439,868.212,862.469,868.809,862.49Zm.258,4.268c.034.527.072,1.049.109,1.563q-1.03-.05-2.042-.121c-.01-.522-.021-1.047-.031-1.57C867.752,866.679,868.408,866.724,869.067,866.758Zm.315,4.232q.058.7.118,1.38c-.768-.068-1.53-.152-2.282-.258q-.015-.678-.031-1.36Q868.276,870.893,869.382,870.99Zm11.663-59.433c.01.522.02,1.045.033,1.571-.652-.049-1.309-.092-1.966-.128-.032-.528-.07-1.05-.107-1.565C879.688,811.467,880.369,811.51,881.045,811.557Zm.082,4.364q.01.713.022,1.426-.884-.045-1.781-.08c-.024-.471-.05-.942-.076-1.405Q880.213,815.889,881.127,815.92Zm.062,4.252c.006.424.013.851.016,1.277-.543-.024-1.091-.044-1.638-.062-.018-.418-.034-.834-.055-1.249C880.072,820.148,880.632,820.16,881.189,820.172Zm.051,4.27c.006.421.008.842.013,1.265-.507-.017-1.018-.03-1.527-.043-.015-.415-.028-.83-.043-1.242Zm.038,4.109q.008.63.01,1.265-.725-.018-1.454-.033-.015-.623-.03-1.242Zm.026,4.119c0,.469,0,.942.006,1.416-.466-.009-.934-.016-1.4-.02,0-.469-.012-.937-.02-1.4C880.361,832.665,880.832,832.666,881.3,832.669Zm.013,4.155q0,.812,0,1.625l-1.38-.009c0-.541,0-1.08-.007-1.617Zm0,4.482c0,.543,0,1.084,0,1.627h-1.384c0-.537.007-1.076.007-1.617C880.4,841.314,880.865,841.31,881.32,841.306Zm-.009,4.368c0,.472-.006.944-.006,1.413-.472,0-.943.005-1.416.008.008-.467.017-.933.02-1.4C880.377,845.688,880.845,845.68,881.311,845.674Zm-.023,4.268q0,.634-.01,1.265l-1.474.01c.01-.411.02-.829.03-1.243C880.319,849.965,880.8,849.953,881.288,849.942Zm-.035,4.108c-.005.422-.007.842-.013,1.263-.517.009-1.036.014-1.557.021.015-.413.028-.83.043-1.242C880.235,854.081,880.745,854.066,881.253,854.05Zm-.047,4.256c0,.429-.01.854-.017,1.28-.556.013-1.116.022-1.676.032.02-.411.037-.829.055-1.248C880.114,858.353,880.662,858.332,881.205,858.306Zm-.056,4.1c-.007.475-.015.952-.022,1.426q-.913.034-1.835.061c.026-.463.052-.934.076-1.406C879.966,862.469,880.56,862.439,881.149,862.409Zm-.071,4.222c-.013.523-.023,1.048-.033,1.57-.676.047-1.357.088-2.04.121.037-.514.075-1.036.107-1.563C879.769,866.724,880.426,866.679,881.078,866.631Zm-.084,4.121c-.011.455-.023.908-.033,1.36-.752.105-1.512.19-2.281.258q.061-.683.119-1.38Q879.9,870.893,880.994,870.751ZM865.4,811.693q-.09.79-.174,1.6c-.709.067-1.408.146-2.1.23q.027-.807.053-1.6C863.912,811.833,864.652,811.759,865.4,811.693Zm-.442,4.321c-.043.484-.086.974-.127,1.466-.612.042-1.218.089-1.825.139q.022-.751.042-1.5C863.681,816.079,864.321,816.045,864.958,816.014Zm-.344,4.222c-.032.443-.061.891-.09,1.34-.54.032-1.078.065-1.61.1.007-.465.017-.927.029-1.388C863.5,820.271,864.056,820.254,864.615,820.236Zm-.269,4.25c-.024.437-.048.877-.07,1.317-.482.021-.963.044-1.438.068.005-.453.015-.9.022-1.354C863.353,824.506,863.848,824.494,864.345,824.486Zm-.193,4.09c-.02.44-.036.879-.05,1.321-.444.016-.88.033-1.322.051,0-.454.01-.9.017-1.355Zm-.134,4.11c-.01.481-.022.967-.032,1.452l-1.243.029c.005-.491.007-.981.013-1.471Zm-.072,4.143c-.005.549-.01,1.1-.013,1.65-.4,0-.806.01-1.206.014,0-.553,0-1.109,0-1.661C863.137,836.829,863.541,836.829,863.947,836.829Zm-.013,4.448c.006.552.008,1.1.013,1.651-.406,0-.809,0-1.216,0,0-.552,0-1.108,0-1.663Zm.053,4.343c.009.485.022.968.032,1.451-.421,0-.844-.006-1.262-.01-.006-.488-.008-.98-.013-1.47C863.157,845.6,863.574,845.61,863.987,845.62Zm.116,4.239c.014.443.03.883.05,1.321l-1.355-.016q-.011-.677-.017-1.352Zm.173,4.1c.022.444.045.881.07,1.319q-.746-.014-1.486-.032c-.007-.45-.016-.9-.022-1.353C863.313,853.912,863.793,853.932,864.276,853.954Zm.249,4.229c.03.449.058.895.09,1.338-.559-.017-1.115-.037-1.671-.057-.012-.461-.022-.92-.029-1.385C863.446,858.116,863.985,858.148,864.524,858.184Zm.307,4.094c.042.492.084.982.127,1.466-.637-.032-1.277-.068-1.911-.106-.014-.5-.027-1-.042-1.5C863.613,862.189,864.219,862.235,864.831,862.278Zm.4,4.188q.083.809.174,1.6c-.748-.067-1.488-.141-2.226-.223-.017-.533-.035-1.07-.053-1.6C863.818,866.323,864.518,866.4,865.226,866.466Zm.472,4.071c.059.463.117.922.18,1.378q-1.3-.215-2.578-.489c-.017-.443-.033-.891-.05-1.339Q864.459,870.339,865.7,870.537ZM885,811.916q.025.8.051,1.6c-.7-.083-1.4-.162-2.1-.229-.055-.539-.111-1.07-.173-1.6.75.065,1.491.139,2.227.223Zm.129,4.2c.011.5.026,1,.039,1.5q-.908-.074-1.825-.139c-.039-.492-.084-.982-.129-1.466C883.859,816.045,884.5,816.079,885.133,816.119Zm.1,4.172c.01.462.02.924.029,1.388-.533-.039-1.069-.072-1.609-.1q-.044-.674-.091-1.34C884.122,820.254,884.68,820.271,885.237,820.291Zm.085,4.225q.01.676.022,1.354-.718-.035-1.438-.068c-.023-.44-.047-.88-.07-1.317C884.333,824.494,884.827,824.506,885.322,824.516Zm.061,4.076c.005.451.013.9.015,1.355q-.659-.027-1.32-.051c-.018-.442-.032-.882-.05-1.321Zm.042,4.1q0,.735.013,1.471l-1.245-.028c-.01-.485-.02-.97-.033-1.452Zm.026,4.136c0,.552,0,1.108,0,1.661l-1.205-.014c-.006-.551-.008-1.1-.016-1.65C884.638,836.829,885.043,836.829,885.45,836.831Zm0,4.432c0,.555,0,1.111,0,1.663-.407,0-.812,0-1.219,0,.008-.549.01-1.1.016-1.651Zm-.015,4.328c0,.49-.01.982-.013,1.47-.42,0-.844.009-1.265.01.013-.483.023-.966.033-1.451Zm-.039,4.221c0,.45-.01.9-.015,1.352l-1.355.016c.018-.438.032-.879.05-1.321Zm-.055,4.076c-.008.449-.015.9-.022,1.353-.5.012-.989.023-1.486.032.022-.438.047-.875.07-1.319C884.384,853.932,884.865,853.912,885.343,853.888Zm-.078,4.191c-.009.465-.019.924-.029,1.385-.557.02-1.114.04-1.671.057q.047-.665.091-1.338C884.2,858.147,884.732,858.116,885.266,858.079Zm-.093,4.06c-.013.5-.028,1-.039,1.5-.634.037-1.274.074-1.915.106.045-.484.089-.975.129-1.466Q884.266,862.214,885.173,862.139Zm-.117,4.1c-.017.534-.035,1.071-.051,1.6-.736.081-1.476.155-2.227.223.063-.528.119-1.06.173-1.6q1.062-.1,2.1-.227Zm-.129,3.847c-.015.448-.033.9-.047,1.339q-1.279.274-2.579.489c.061-.455.12-.914.18-1.377C883.308,870.4,884.122,870.256,884.927,870.087Zm-23.362-57.978c-.074.541-.147,1.091-.216,1.645q-1.053.147-2.087.325.044-.832.089-1.659C860.082,812.309,860.823,812.2,861.565,812.108Zm-.513,4.141c-.056.516-.114,1.038-.165,1.562-.609.062-1.216.124-1.817.194.025-.536.049-1.074.075-1.609C859.777,816.343,860.414,816.3,861.052,816.249Zm-.413,4.135q-.067.737-.127,1.481-.806.07-1.6.146c.019-.518.039-1.034.06-1.548Q859.8,820.423,860.639,820.384Zm-.33,4.2c-.032.475-.065.954-.093,1.435-.482.029-.959.06-1.436.094.015-.5.027-.993.045-1.487Q859.563,824.6,860.309,824.579Zm-.238,4.053q-.036.715-.066,1.439c-.441.021-.882.045-1.32.068.01-.5.019-.992.03-1.486Zm-.163,4.086c-.015.508-.03,1.018-.042,1.529l-1.243.041c.005-.519.013-1.038.02-1.554C859.065,832.727,859.485,832.724,859.908,832.718Zm-.088,4.117c-.008.565-.015,1.135-.018,1.7-.406.006-.81.013-1.206.021q0-.864.008-1.722Zm-.018,4.385c0,.57.01,1.139.018,1.7-.409,0-.813,0-1.216,0q-.008-.858-.008-1.722Zm.065,4.29c.011.511.026,1.021.042,1.528l-1.265-.013c-.007-.518-.015-1.036-.02-1.557C859.037,845.483,859.448,845.5,859.867,845.509Zm.139,4.178q.029.721.066,1.437c-.453-.006-.9-.015-1.356-.022-.011-.493-.019-.991-.03-1.486C859.124,849.642,859.564,849.664,860.005,849.687Zm.21,4.056c.029.481.062.958.093,1.433-.5-.012-.992-.028-1.485-.042-.018-.5-.03-.991-.045-1.486C859.257,853.682,859.734,853.714,860.216,853.743Zm.3,4.148c.041.5.083.992.127,1.481-.56-.024-1.116-.052-1.671-.077-.02-.517-.041-1.031-.06-1.549C859.44,857.8,859.975,857.846,860.512,857.891Zm.374,4.053c.052.526.109,1.046.165,1.563-.638-.044-1.274-.1-1.908-.149q-.038-.8-.075-1.608C859.671,861.819,860.278,861.883,860.886,861.944Zm.463,4.059c.069.555.142,1.1.216,1.645-.742-.1-1.483-.2-2.213-.31-.03-.549-.06-1.1-.089-1.658Q860.295,865.854,861.349,866Zm.52,3.774c.069.459.141.915.212,1.367q-1.287-.315-2.542-.693c-.028-.438-.055-.873-.081-1.314Q860.646,869.486,861.87,869.777Zm26.956-57.358c.033.551.062,1.1.092,1.659q-1.035-.176-2.086-.324-.106-.832-.218-1.645Q887.731,812.253,888.826,812.419Zm.208,3.977c.027.535.052,1.072.074,1.609-.6-.07-1.205-.132-1.815-.194-.054-.523-.109-1.045-.168-1.562C887.767,816.3,888.4,816.343,889.034,816.4Zm.176,4.067q.035.77.06,1.548c-.533-.05-1.065-.1-1.6-.146q-.065-.745-.127-1.481Q888.381,820.422,889.21,820.463Zm.147,4.158c.014.494.029.988.042,1.487-.476-.034-.956-.065-1.436-.093-.028-.48-.06-.96-.092-1.435Q888.618,824.6,889.357,824.621Zm.106,4.033q.015.741.03,1.484c-.436-.022-.877-.046-1.319-.067-.019-.483-.043-.962-.064-1.439Zm.073,4.08c.007.516.015,1.035.019,1.554l-1.242-.041c-.01-.511-.026-1.021-.04-1.529C888.694,832.724,889.116,832.727,889.535,832.734Zm.042,4.1c.005.573.005,1.146.007,1.722-.4-.008-.8-.015-1.207-.021,0-.569-.008-1.138-.016-1.7Zm.007,4.362c0,.575,0,1.15-.007,1.721-.4,0-.809,0-1.216,0,.008-.564.013-1.132.016-1.7Zm-.029,4.269c0,.521-.012,1.039-.019,1.557l-1.263.013c.014-.508.03-1.017.04-1.528C888.73,845.5,889.143,845.483,889.554,845.468Zm-.061,4.148c-.01.495-.02.993-.03,1.486-.451.007-.9.016-1.353.022.022-.478.045-.957.064-1.437C888.616,849.664,889.056,849.642,889.493,849.616Zm-.094,4.033c-.013.495-.028.991-.042,1.486-.493.014-.988.03-1.486.042.032-.473.064-.952.092-1.433C888.443,853.714,888.923,853.682,889.4,853.649Zm-.129,4.1c-.017.518-.037,1.032-.06,1.549-.552.024-1.109.052-1.669.077.042-.49.084-.985.127-1.482C888.205,857.846,888.737,857.8,889.27,857.746Zm-.162,4q-.032.809-.074,1.608c-.634.053-1.268.1-1.909.149.06-.518.114-1.037.168-1.564Q888.208,861.852,889.108,861.751Zm-.19,3.929c-.03.553-.059,1.108-.092,1.657q-1.094.166-2.212.31.111-.814.218-1.645Q887.881,865.852,888.918,865.68Zm-.2,3.457c-.025.441-.055.876-.081,1.314q-1.252.379-2.541.693c.073-.453.142-.908.211-1.367Q887.53,869.488,888.72,869.138Zm-30.8-56.485c-.109.565-.214,1.141-.315,1.72-.77.146-1.525.3-2.276.465.051-.583.1-1.16.154-1.737Q856.694,812.861,857.923,812.652Zm-.683,3.911q-.13.843-.258,1.7c-.651.086-1.3.177-1.94.272q.062-.885.131-1.762Q856.2,816.662,857.24,816.564Zm-.572,4.023c-.07.555-.137,1.116-.2,1.679-.566.067-1.127.133-1.682.2.035-.593.07-1.187.107-1.776Q855.777,820.638,856.668,820.587Zm-.458,4.119c-.05.533-.1,1.067-.147,1.6-.5.042-.99.083-1.48.128.024-.559.052-1.115.077-1.67Zm-.332,4q-.056.8-.1,1.609c-.449.03-.895.061-1.339.093q.023-.838.057-1.672Zm-.231,4.058c-.022.544-.044,1.089-.062,1.638l-1.25.055c.01-.56.023-1.119.035-1.677C854.8,832.778,855.222,832.771,855.647,832.766Zm-.126,4.076q-.014.886-.022,1.78l-1.209.03q0-.906.012-1.806C854.709,836.846,855.115,836.844,855.521,836.842Zm-.022,4.291q.007.894.022,1.78c-.405,0-.812,0-1.218,0q-.008-.9-.012-1.806Zm.086,4.219c.018.547.041,1.094.063,1.636-.425,0-.852-.01-1.277-.014-.012-.557-.025-1.117-.035-1.678Zm.188,4.087q.049.807.1,1.609l-1.387-.03c-.022-.557-.042-1.112-.057-1.671C854.878,849.378,855.324,849.41,855.773,849.44Zm.29,4.007c.047.539.1,1.071.147,1.6l-1.55-.061c-.025-.553-.052-1.11-.077-1.67C855.073,853.363,855.568,853.406,856.063,853.447Zm.4,4.043q.1.844.2,1.68c-.594-.033-1.186-.073-1.775-.106-.037-.59-.072-1.183-.107-1.776C855.34,857.356,855.9,857.426,856.467,857.49Zm.514,4q.128.859.258,1.7c-.693-.065-1.381-.135-2.068-.206-.045-.586-.089-1.176-.131-1.765C855.683,861.314,856.331,861.408,856.982,861.492Zm.625,3.893q.154.868.317,1.72c-.82-.139-1.632-.29-2.437-.448q-.078-.864-.154-1.737C856.084,865.084,856.838,865.239,857.607,865.385Zm.65,3.388c.1.459.193.914.292,1.364-.958-.31-1.9-.653-2.822-1.018q-.066-.64-.127-1.283Q856.9,868.335,858.257,868.772ZM892.692,813.1c.055.577.1,1.155.155,1.737q-1.125-.248-2.275-.465c-.1-.58-.208-1.155-.317-1.72Q891.488,812.86,892.692,813.1Zm.313,3.672q.073.878.135,1.762c-.644-.095-1.294-.186-1.944-.272q-.123-.856-.257-1.7c.693.065,1.383.135,2.066.208Zm.281,3.922c.036.59.074,1.183.109,1.776-.558-.071-1.117-.137-1.68-.2-.068-.563-.135-1.124-.2-1.679Q892.4,820.637,893.286,820.693Zm.233,4.072c.026.554.054,1.111.079,1.67-.494-.045-.988-.086-1.483-.128q-.067-.8-.147-1.6Zm.171,3.971c.02.557.039,1.113.055,1.672-.444-.032-.89-.063-1.341-.093-.032-.539-.065-1.075-.1-1.609Zm.118,4.044c.014.558.025,1.117.034,1.677l-1.248-.054c-.02-.549-.039-1.095-.065-1.638C892.956,832.77,893.385,832.778,893.808,832.781Zm.068,4.065c.006.6.009,1.2.013,1.806l-1.207-.03q-.007-.893-.025-1.78C893.066,836.844,893.471,836.846,893.875,836.846Zm.013,4.257c0,.6-.007,1.205-.013,1.806-.4,0-.809,0-1.219,0,.011-.592.02-1.184.025-1.78Zm-.046,4.194c-.01.561-.02,1.12-.034,1.678-.423,0-.852.011-1.278.014.025-.542.045-1.089.065-1.636Zm-.1,4.05c-.015.559-.035,1.114-.055,1.671l-1.39.03c.04-.534.072-1.071.1-1.609C892.855,849.41,893.3,849.378,893.745,849.347Zm-.147,3.973c-.025.559-.053,1.117-.079,1.67l-1.55.061c.052-.533.1-1.065.147-1.6C892.61,853.406,893.1,853.363,893.6,853.32Zm-.2,3.967c-.035.593-.073,1.186-.109,1.776-.589.034-1.181.073-1.775.106q.1-.836.2-1.68C892.278,857.426,892.837,857.355,893.394,857.287Zm-.254,3.933c-.043.589-.087,1.178-.135,1.765-.683.071-1.373.141-2.066.206q.134-.84.257-1.7C891.846,861.408,892.5,861.314,893.14,861.22Zm-.293,3.7c-.052.582-.1,1.161-.155,1.737-.8.158-1.614.31-2.436.448q.163-.853.317-1.72Q891.724,865.166,892.847,864.919Zm-.266,2.916c-.043.429-.085.856-.129,1.283-.922.366-1.865.708-2.824,1.018.1-.45.2-.906.3-1.365Q891.275,868.337,892.581,867.836Zm-38.473-54.45c-.134.6-.262,1.209-.388,1.824-.711.171-1.414.353-2.107.542.086-.623.178-1.24.27-1.852Q852.982,813.627,854.107,813.385Zm-.729,3.588c-.114.618-.223,1.246-.33,1.877q-.948.158-1.879.33.119-.989.244-1.964Q852.387,817.089,853.378,816.973Zm-.644,3.868c-.1.642-.188,1.29-.273,1.942-.573.083-1.139.168-1.7.256q.1-1.038.208-2.066C851.555,820.928,852.142,820.883,852.733,820.841Zm-.532,4.028c-.067.6-.134,1.2-.193,1.815-.522.053-1.048.108-1.562.166.047-.639.094-1.275.147-1.908.535-.025,1.071-.05,1.608-.073Zm-.387,3.933c-.05.606-.1,1.212-.139,1.822-.492.042-.982.086-1.467.131q.047-.962.106-1.912Zm-.27,4.021q-.048.885-.081,1.779c-.474.024-.943.049-1.406.077q.027-.919.06-1.832Zm-.15,4.031q-.019.935-.028,1.88c-.467.016-.928.029-1.378.046q0-.964.022-1.923Zm-.028,4.168c.005.627.015,1.257.028,1.879l-1.385,0c-.012-.638-.02-1.281-.022-1.922C850.439,840.991,850.9,841.007,851.366,841.022Zm.1,4.132q.035.893.081,1.778-.716-.01-1.428-.024-.033-.911-.06-1.832C850.521,845.1,850.99,845.128,851.463,845.154Zm.213,3.974q.063.919.139,1.824l-1.5-.04q-.06-.952-.106-1.912C850.694,849.045,851.184,849.088,851.676,849.129Zm.332,3.947c.059.606.126,1.212.193,1.811q-.806-.034-1.608-.075c-.053-.634-.1-1.267-.147-1.9C850.96,852.961,851.486,853.018,852.008,853.076Zm.453,3.9c.084.651.176,1.3.273,1.943-.592-.042-1.178-.087-1.765-.134-.073-.681-.142-1.37-.208-2.062C851.322,856.806,851.887,856.89,852.461,856.972Zm.587,3.934c.107.631.216,1.257.33,1.879q-.989-.12-1.964-.246-.126-.975-.244-1.963Q852.1,860.748,853.048,860.906Zm.671,3.643c.126.613.254,1.219.388,1.821q-1.124-.245-2.225-.511c-.092-.615-.184-1.23-.27-1.852C852.3,864.194,853.008,864.377,853.719,864.549Zm.6,2.773q.129.554.261,1.1-1.355-.925-2.611-1.974c-.01-.068-.022-.139-.033-.2C852.718,866.62,853.51,866.981,854.324,867.321ZM896.3,813.9q.141.917.27,1.852c-.693-.189-1.4-.371-2.107-.542-.126-.614-.253-1.22-.388-1.824Q895.2,813.629,896.3,813.9Zm.47,3.317c.084.649.167,1.3.243,1.964-.619-.115-1.248-.225-1.876-.33-.107-.63-.216-1.258-.332-1.877C895.463,817.05,896.115,817.132,896.766,817.217Zm.446,3.756c.072.686.142,1.374.206,2.066-.563-.088-1.127-.173-1.7-.256-.087-.652-.18-1.3-.274-1.942Q896.332,820.9,897.212,820.973Zm.375,3.968c.051.633.1,1.269.145,1.908-.515-.058-1.038-.113-1.562-.166-.06-.61-.123-1.214-.194-1.815C896.514,824.891,897.051,824.917,897.587,824.941Zm.279,3.9q.057.949.1,1.912c-.486-.044-.973-.088-1.469-.131-.042-.61-.086-1.216-.136-1.822Zm.2,4c.022.608.044,1.219.058,1.832-.462-.028-.931-.054-1.4-.077q-.038-.894-.081-1.779Zm.108,4.01q.016.959.023,1.923c-.451-.017-.911-.03-1.378-.046q-.012-.944-.03-1.88Zm.023,4.12c-.005.641-.012,1.283-.023,1.922l-1.385,0c.012-.621.022-1.252.03-1.879C897.282,841.007,897.742,840.991,898.193,840.977Zm-.073,4.1c-.014.614-.036,1.224-.058,1.832-.475.009-.949.018-1.426.024q.044-.884.081-1.778C897.19,845.128,897.658,845.1,898.12,845.076ZM897.97,849q-.049.96-.1,1.912c-.5.012-1,.027-1.5.04.05-.6.094-1.212.136-1.822C897,849.088,897.484,849.045,897.97,849Zm-.238,3.906c-.045.637-.094,1.27-.145,1.9q-.8.042-1.611.075c.07-.6.134-1.2.194-1.811C896.695,853.018,897.218,852.961,897.732,852.908Zm-.314,3.811c-.064.691-.134,1.38-.206,2.062q-.879.071-1.766.134c.094-.641.187-1.291.274-1.943C896.291,856.89,896.855,856.806,897.418,856.718Zm-.409,3.858c-.076.659-.159,1.313-.243,1.963-.651.084-1.3.166-1.966.246.116-.622.225-1.248.332-1.879C895.763,860.8,896.39,860.691,897.009,860.576Zm-.443,3.429c-.086.622-.175,1.237-.27,1.852q-1.1.265-2.225.511c.135-.6.262-1.207.388-1.821C895.17,864.377,895.873,864.194,896.566,864.006Zm-.329,2.235c-.01.066-.02.136-.029.2-.839.7-1.712,1.357-2.612,1.974.086-.363.175-.729.259-1.1Q895.073,866.811,896.237,866.241ZM848.45,816.691q.579-.637,1.187-1.245s0,0,0-.005q.609-.607,1.246-1.184-.3.919-.572,1.861C849.684,816.3,849.065,816.492,848.45,816.691Zm1.5.723q-.281,1.041-.542,2.107-.922.187-1.822.387.24-1.123.513-2.223Q849.014,817.545,849.946,817.415Zm-.914,3.719q-.245,1.121-.466,2.272-.869.153-1.723.317.212-1.23.451-2.434Q848.159,821.209,849.032,821.134Zm-.76,3.926q-.176,1.032-.325,2.086-.832.106-1.647.216.141-1.114.312-2.211Zm-.561,3.859q-.126,1.042-.23,2.1c-.538.055-1.072.112-1.6.173.067-.749.142-1.489.223-2.226Zm-.39,3.977c-.05.651-.092,1.3-.129,1.962-.528.035-1.051.073-1.565.109.032-.684.074-1.366.121-2.04C846.272,832.915,846.8,832.905,847.322,832.9Zm-.216,3.972q-.033,1.007-.044,2.025c-.535.023-1.052.049-1.55.073q.011-1.051.042-2.092Zm-.044,4q.012,1.019.044,2.026c-.517,0-1.037-.005-1.553-.006q-.032-1.041-.042-2.091Zm.132,4.035q.055.987.129,1.962l-1.572-.031c-.047-.677-.089-1.356-.121-2.04C846.142,844.826,846.665,844.863,847.193,844.9Zm.289,3.839c.07.7.146,1.406.23,2.1-.534-.015-1.071-.032-1.606-.049q-.118-1.1-.221-2.226C846.41,848.622,846.944,848.679,847.482,848.737Zm.466,3.875c.1.7.208,1.395.325,2.085-.555-.026-1.109-.06-1.66-.091q-.169-1.1-.312-2.21C846.844,852.466,847.393,852.541,847.948,852.611Zm.619,3.74c.147.765.3,1.525.466,2.271-.582-.052-1.161-.1-1.738-.156-.159-.8-.309-1.616-.451-2.432C847.413,856.143,847.987,856.247,848.566,856.351Zm.837,3.882c.173.71.354,1.414.542,2.1-.621-.084-1.238-.175-1.851-.266-.181-.732-.353-1.475-.513-2.224Q848.484,860.048,849.4,860.233Zm.911,3.4c.182.63.373,1.25.572,1.864-.457-.417-.9-.84-1.335-1.277-.376-.377-.742-.765-1.1-1.159C849.065,863.265,849.684,863.455,850.315,863.638ZM898.5,815.4c.421.42.832.849,1.23,1.291-.611-.2-1.233-.39-1.862-.574q-.278-.942-.574-1.861.6.542,1.171,1.109C898.475,815.376,898.485,815.389,898.5,815.4Zm1.589,2.286q.268,1.1.513,2.223c-.6-.133-1.212-.262-1.823-.387q-.26-1.067-.545-2.107C898.856,817.5,899.472,817.592,900.087,817.686Zm.8,3.6q.24,1.2.451,2.434-.851-.163-1.724-.317c-.142-.766-.3-1.524-.466-2.272Q900.023,821.208,900.884,821.288Zm.68,3.862q.17,1.1.314,2.211-.816-.111-1.646-.216-.151-1.052-.326-2.086Zm.507,3.819c.082.736.156,1.477.221,2.226-.525-.061-1.059-.118-1.6-.173q-.1-1.061-.23-2.1Zm.359,3.958c.044.674.087,1.356.121,2.04-.517-.036-1.038-.074-1.567-.109-.034-.658-.079-1.311-.126-1.962C901.384,832.905,901.91,832.915,902.432,832.927Zm.2,3.945c.02.694.032,1.391.039,2.092-.5-.024-1.013-.05-1.55-.073q-.012-1.017-.042-2.025Zm.039,3.921c-.008.7-.02,1.4-.039,2.091-.518,0-1.035,0-1.553.006q.03-1.008.042-2.026Zm-.114,4c-.035.684-.077,1.362-.121,2.04l-1.572.031c.047-.651.091-1.3.126-1.962C901.515,844.863,902.036,844.826,902.553,844.789Zm-.26,3.772q-.1,1.12-.221,2.226-.8.027-1.607.049c.084-.694.162-1.4.23-2.1C901.234,848.679,901.768,848.622,902.293,848.561Zm-.414,3.834c-.1.745-.2,1.479-.314,2.21-.55.032-1.1.065-1.659.091.116-.69.226-1.383.326-2.085C900.786,852.541,901.335,852.466,901.879,852.4Zm-.544,3.639c-.139.817-.29,1.631-.451,2.432q-.862.082-1.739.156c.167-.746.323-1.507.466-2.271C900.193,856.247,900.768,856.143,901.335,856.034Zm-.735,3.814c-.164.749-.335,1.492-.513,2.224-.614.091-1.23.182-1.854.266.191-.691.372-1.4.545-2.1C899.388,860.11,900,859.981,900.6,859.848Zm-.872,3.218c-.384.424-.778.84-1.186,1.245,0,0,0,0,0,.005-.407.4-.82.8-1.245,1.186.2-.614.389-1.234.574-1.864C898.495,863.455,899.117,863.265,899.728,863.066Zm3.619-41.538q.553,1.381,1.023,2.823-.677-.152-1.367-.3c-.29-.9-.6-1.786-.939-2.654Zm1.335,3.811q.378,1.251.7,2.539-.68-.108-1.368-.213-.294-1.219-.64-2.408Q904.027,825.3,904.682,825.339Zm.977,3.756q.273,1.273.489,2.577c-.456-.061-.916-.121-1.378-.18q-.2-1.239-.451-2.445Zm.688,3.916q.152,1.128.254,2.279l-1.378-.117c-.066-.739-.144-1.468-.239-2.193C905.439,832.988,905.893,833,906.346,833.011Zm.37,3.875q.068,1.157.083,2.327c-.429-.031-.888-.064-1.38-.095-.01-.751-.034-1.5-.076-2.237Zm.083,3.654q-.015,1.171-.083,2.328c-.457,0-.913,0-1.373.005.042-.741.066-1.485.076-2.236Q906.156,840.59,906.8,840.541Zm-.2,3.924q-.1,1.152-.254,2.281l-1.363.03c.095-.725.173-1.457.239-2.193Q905.921,844.527,906.6,844.465Zm-.453,3.618c-.142.867-.307,1.729-.489,2.577q-.669.026-1.34.049.252-1.206.451-2.445C905.231,848.205,905.691,848.146,906.147,848.083Zm-.77,3.794q-.316,1.289-.7,2.54c-.436.029-.874.054-1.312.084.231-.792.443-1.6.64-2.41Q904.7,851.987,905.377,851.877Zm-1.007,3.53q-.47,1.439-1.023,2.82c-.425.044-.854.086-1.282.129.336-.866.648-1.755.938-2.655Q903.693,855.555,904.37,855.407Zm-3.9,6.605q.571-1.165,1.082-2.379c.369-.087.737-.173,1.1-.264-.619.9-1.278,1.773-1.976,2.608C900.608,861.99,900.536,862,900.469,862.012Zm1.082-41.887q-.509-1.217-1.082-2.381c.067.012.139.022.2.033q1.047,1.254,1.976,2.608C902.288,820.3,901.92,820.21,901.551,820.126Z" transform="translate(-837.21 -803.181)" fill="#25a858" fill-rule="evenodd"/>
        </g>
      </g>
    </g>
  </g>
</svg>
